HIERARCHY
ROOT Hips
{
  OFFSET -10.0563 7.73376 -472.55
  CHANNELS 6 Xposition Yposition Zposition Zrotation Xrotation Yrotation
  JOINT Spine
  {
    OFFSET 0 0 0
    CHANNELS 3 Zrotation Xrotation Yrotation
    JOINT Spine1
    {
      OFFSET 19 0 0
      CHANNELS 3 Zrotation Xrotation Yrotation
      JOINT Neck
      {
        OFFSET 22.5 0.6 0
        CHANNELS 3 Zrotation Xrotation Yrotation
        JOINT Head
        {
          OFFSET 14 0.0308777 0
          CHANNELS 3 Zrotation Xrotation Yrotation
          End Site
          {
            OFFSET 17 0 0
          }
        }
      }
      JOINT LeftShoulder
      {
        OFFSET 19.8 3.7 4.3
        CHANNELS 3 Zrotation Xrotation Yrotation
        JOINT LeftArm
        {
          OFFSET 8 0 0
          CHANNELS 3 Zrotation Xrotation Yrotation
          JOINT LeftForeArm
          {
            OFFSET 15.2 0 0
            CHANNELS 3 Zrotation Xrotation Yrotation
            JOINT LeftHand
            {
              OFFSET 17.8 0 0
              CHANNELS 3 Zrotation Xrotation Yrotation
              End Site
              {
                OFFSET 7.2 0 0
              }
            }
          }
        }
      }
      JOINT RightShoulder
      {
        OFFSET 19.8 3.7 -4.3
        CHANNELS 3 Zrotation Xrotation Yrotation
        JOINT RightArm
        {
          OFFSET 8 0 0.151654
          CHANNELS 3 Zrotation Xrotation Yrotation
          JOINT RightForeArm
          {
            OFFSET 15.2 0 0
            CHANNELS 3 Zrotation Xrotation Yrotation
            JOINT RightHand
            {
              OFFSET 17.8 0 0
              CHANNELS 3 Zrotation Xrotation Yrotation
              End Site
              {
                OFFSET 7.2 0 0
              }
            }
          }
        }
      }
    }
  }
  JOINT LeftUpLeg
  {
    OFFSET 5.98425 -7.666 4.78879
    CHANNELS 3 Zrotation Xrotation Yrotation
    JOINT LeftLeg
    {
      OFFSET 16 0 0
      CHANNELS 3 Zrotation Xrotation Yrotation
      JOINT LeftFoot
      {
        OFFSET 18 0 0
        CHANNELS 3 Zrotation Xrotation Yrotation
        End Site
        {
          OFFSET 0 -10.8 0
        }
      }
    }
  }
  JOINT RightUpLeg
  {
    OFFSET 5.98425 -7.66598 -4.78879
    CHANNELS 3 Zrotation Xrotation Yrotation
    JOINT RightLeg
    {
      OFFSET 16 0 0
      CHANNELS 3 Zrotation Xrotation Yrotation
      JOINT RightFoot
      {
        OFFSET 18 0 0
        CHANNELS 3 Zrotation Xrotation Yrotation
        End Site
        {
          OFFSET 0 -10.8 0
        }
      }
    }
  }
  JOINT Tail
  {
    OFFSET 6.83696 -0.722574 0
    CHANNELS 3 Zrotation Xrotation Yrotation
    JOINT Tail1
    {
      OFFSET 12 0 0
      CHANNELS 3 Zrotation Xrotation Yrotation
      End Site
      {
        OFFSET 12 0 0
      }
    }
  }
}
MOTION
Frames:	12
Frame Time:	0.0166667
18.0788 46.9929 23.5806 -1.00862 -5.03095 92.807 -168.458 -0.831087 -4.70342 -7.55187 -3.94321 15.4154 -1.56625 -11.4902 26.758 -93.3672 50.7257 131.744 -109.645 -33.3382 -142.802 130.1 -27.7883 -119.962 -50.9451 16.0929 -10.6014 -12.3919 2.25161 -12.7558 75.795 -29.216 44.4945 28.5632 -39.3439 -46.3664 -54.2305 -17.6655 3.58748 -7.92836 0.590743 1.60476 -123.945 -6.87967 -13.2096 74.3301 13.2477 7.69879 45.158 -3.92127 -6.73469 -124.909 5.23572 5.36266 80.4834 5.59118 -5.43851 47.009 -0.870396 -2.95549 -43.5692 66.6261 -18.7901 -7.06869 -52.7702 -6.39218 
17.8396 46.9683 23.6261 -0.812924 -5.23468 93.2827 -168.213 -0.696804 -4.72951 -7.79326 -4.02072 16.151 -1.44618 -11.7271 27.4452 -93.0974 50.5145 131.642 -109.564 -33.2179 -142.837 130.143 -27.8363 -119.854 -50.8559 15.9912 -10.7925 -11.8277 2.15503 -12.4538 76.0397 -28.794 44.3464 28.8442 -39.1694 -46.1864 -54.292 -17.5965 3.68093 -8.00741 0.560788 1.65856 -124.02 -6.60104 -13.1035 74.7466 13.1265 7.40111 45.2835 -3.86022 -6.65214 -123.462 4.54029 4.40172 79.7851 5.15198 -5.04836 46.739 -0.859891 -2.97941 -41.219 66.7214 -21.0373 -6.34095 -50.1337 -6.11223 
17.6064 46.9518 23.7495 -0.714208 -4.98255 93.4656 -168.546 -0.619083 -5.24629 -7.70745 -4.11711 17.2056 -1.31606 -12.183 28.4996 -92.3616 50.8149 131.199 -109.737 -33.6056 -142.472 130.251 -28.078 -118.866 -50.1924 16.3514 -11.5551 -11.5576 2.04527 -12.076 76.2303 -28.5347 44.4041 28.6226 -39.0561 -46.3658 -54.1094 -17.9332 3.74097 -8.24495 0.562098 1.72962 -124.397 -6.16231 -12.8785 75.0759 13.11 7.09216 45.2243 -3.80132 -6.59461 -122.843 3.77823 3.70401 78.845 3.96919 -4.80247 46.4055 -0.724231 -2.85871 -40.2463 66.5754 -22.2206 -5.49977 -48.2042 -5.76077 
17.3893 46.929 23.8867 -0.66247 -4.38116 93.478 -168.815 -0.496627 -6.00934 -8.28677 -4.26414 18.3944 -1.14388 -12.4251 29.3118 -92.1564 51.2115 130.679 -109.844 -33.7297 -142.501 130.354 -28.7022 -118.632 -50.2032 16.3277 -11.6822 -10.8921 1.96128 -11.9821 76.5255 -28.1574 44.5606 28.8798 -39.253 -46.1587 -54.4049 -17.8414 3.68216 -8.44844 0.529345 1.75051 -125.014 -5.99591 -12.9065 75.0989 12.7897 7.0429 45.3524 -3.73797 -6.5138 -123.188 3.66488 3.68045 78.537 3.63651 -4.85867 46.777 -0.665201 -2.80596 -40.4956 66.4244 -22.4696 -4.77426 -46.9406 -5.53858 
17.2084 46.9982 24.0421 -0.740747 -3.86298 93.3624 -168.747 -0.388448 -6.95934 -8.96395 -4.43522 19.7071 -1.20247 -12.7116 29.9727 -91.7682 51.4125 130.431 -110.006 -33.9694 -142.429 130.683 -29.6637 -118.799 -50.6421 16.0295 -11.272 -10.0785 1.95437 -12.3345 76.5316 -28.097 44.4285 29.2778 -39.5957 -45.6935 -54.9009 -18.0001 3.56747 -8.44053 0.525323 1.68169 -125.41 -5.64918 -12.9998 74.7973 12.7183 6.99573 46.0353 -3.72412 -6.48616 -123.33 3.87442 3.55281 77.7631 3.50012 -4.97731 47.5122 -0.590085 -2.74226 -40.9002 66.0495 -22.3834 -4.2577 -46.2746 -5.33728 
17.0644 47.1167 24.2292 -0.876786 -3.28071 93.3031 -168.534 -0.321905 -7.69685 -9.98036 -4.67843 20.7143 -1.10058 -12.8049 30.8791 -91.4248 52.0962 130.201 -110.04 -34.0544 -142.34 130.604 -30.3606 -118.788 -50.7728 16.2362 -11.2575 -9.53682 1.88673 -12.3991 76.8465 -27.6921 44.5952 29.1388 -39.8167 -45.8653 -55.0086 -17.9663 3.53804 -8.6584 0.491454 1.76032 -125.725 -5.30691 -13.15 74.2423 12.6691 7.02869 46.8295 -3.73105 -6.48146 -123.311 4.16646 3.42048 76.7286 3.32965 -5.15309 48.2176 -0.503748 -2.67523 -41.4619 65.4796 -21.9602 -4.23078 -45.7695 -5.53403 
16.9087 47.2444 24.4444 -1.12801 -2.48696 93.1946 -168.721 -0.208954 -8.51539 -10.6011 -4.8447 21.7894 -1.12606 -12.9396 31.7638 -91.1409 52.6554 130.007 -110.169 -34.337 -142.091 130.502 -31.0214 -118.48 -50.8974 16.3866 -11.3818 -9.14574 1.85962 -12.5404 76.9445 -27.5159 44.5164 29.4178 -39.9067 -45.8343 -55.3158 -18.0636 3.56855 -8.72519 0.46201 1.76624 -126.126 -4.9404 -13.4806 73.5212 12.6691 7.1443 47.4525 -3.72121 -6.45549 -123.299 4.20941 2.96739 75.4467 2.87962 -5.18602 48.9777 -0.35813 -2.57572 -42.2427 64.7798 -21.4954 -4.39805 -45.6285 -5.75052 
16.7351 47.3312 24.6344 -1.12708 -1.83184 93.1712 -168.839 -0.225507 -9.18654 -11.127 -5.14725 22.7987 -0.813239 -13.0601 32.7872 -91.0967 53.2377 129.404 -110.25 -34.5325 -141.895 130.501 -31.7267 -118.509 -51.274 16.1585 -11.2278 -8.41429 1.82697 -12.7157 77.0487 -27.3043 44.3671 29.3024 -40.1441 -45.6858 -55.4978 -18.0414 3.41227 -8.83999 0.406888 1.98518 -126.419 -4.80148 -13.6049 72.9148 12.5525 7.21214 47.952 -3.6811 -6.38822 -123.293 3.86928 2.80022 74.5039 1.87081 -5.15883 49.7668 -0.142798 -2.41431 -43.1821 64.2576 -20.6165 -4.85736 -45.7261 -6.10231 
16.5643 47.3548 24.8236 -1.08496 -1.26521 93.1649 -169.1 -0.296357 -9.59839 -11.407 -5.40752 23.4111 -0.759247 -13.0655 33.6329 -91.0575 53.7171 129.234 -110.371 -34.7843 -141.696 130.298 -32.2746 -118.503 -51.3385 16.2075 -11.197 -7.98863 1.78314 -12.7786 77.0608 -27.0514 43.7336 29.6991 -40.4199 -44.9997 -55.8282 -18.208 3.38018 -8.92662 0.385761 2.1878 -126.799 -4.6444 -13.7309 72.6165 12.5014 7.2931 48.509 -3.67374 -6.3711 -123.317 3.54125 2.48227 73.8764 1.47002 -5.02032 50.1737 -0.06658 -2.35821 -44.1389 63.7467 -19.5695 -5.31514 -46.0884 -6.37799 
16.4266 47.3521 24.9884 -0.998014 -0.767933 93.1394 -169.436 -0.349134 -9.94887 -11.5633 -5.62518 23.9566 -0.558199 -13.1288 34.5714 -90.8779 54.3051 128.848 -110.52 -35.0599 -141.522 130.176 -32.8313 -118.384 -51.347 16.2997 -11.2545 -7.60614 1.73787 -12.8138 77.1905 -26.7497 43.429 30.4839 -40.0177 -45.0993 -55.9285 -18.4145 3.73906 -9.31129 0.385599 2.02861 -127.041 -4.61126 -13.718 72.4165 12.1719 7.34374 48.5503 -3.63414 -6.32635 -123.493 3.39447 2.25141 73.5685 1.39318 -4.94119 50.3452 -0.0444091 -2.34898 -45.3334 63.216 -18.0932 -5.79598 -46.8582 -6.59892 
16.3109 47.3524 25.1167 -1.01824 -0.440696 93.0933 -169.685 -0.357167 -10.3275 -11.6471 -5.77419 24.5159 -0.463879 -13.0883 35.1961 -90.9835 54.55 128.774 -110.448 -35.0037 -141.446 129.738 -32.9607 -118.539 -51.5512 16.4582 -11.2508 -7.28138 1.68002 -12.7592 77.5106 -26.2766 43.4198 30.2349 -39.8805 -45.2813 -55.8994 -18.3331 3.75762 -9.72614 0.35857 2.09707 -127.209 -4.38241 -13.6252 72.4034 11.9721 7.21203 48.5268 -3.59928 -6.29026 -123.396 3.46528 2.00395 73.2052 1.40299 -4.91788 50.008 -0.0554874 -2.34439 -46.3179 62.5969 -16.6509 -6.18283 -47.9297 -6.66476 
16.1947 47.3536 25.2066 -0.992658 -0.285982 93.0329 -169.847 -0.365185 -10.6119 -11.5638 -5.86058 24.9599 -0.434708 -13.1982 35.7416 -90.9021 54.4581 128.745 -110.466 -35.0932 -141.308 129.805 -33.1903 -118.675 -51.5574 16.2726 -11.0791 -7.15422 1.70356 -12.9316 77.6534 -26.0033 43.2377 30.1472 -39.7725 -45.3033 -55.955 -18.3476 3.80681 -9.80402 0.321471 2.22338 -127.252 -4.21605 -13.5056 72.419 11.7363 7.04235 48.5585 -3.54369 -6.221 -123.322 3.32773 1.86252 73.008 0.821288 -4.87005 50.079 0.0459108 -2.25522 -47.3807 62.1404 -15.0419 -6.32214 -49.355 -6.4849 
